<?xml version="1.0" encoding="UTF-8"?>
<!-- Created with Inkscape (http://www.inkscape.org/) -->
<svg width="3103.1" height="1091.2" version="1.1" viewBox="0 0 3103.1 1091.2" xmlns="http://www.w3.org/2000/svg">
 <g transform="matrix(10 0 0 10 12285 -7014.5)">
  <path d="m-1097.3 722.1 0.01 0.39062c0 9.1979 5.5104 16.021 17.573 16.458 4.0781 0.15104 12.219-1.2708 15.146-1.8594 0.4323-0.0833 0.7969 0.11454 0.8802 0.54688 0.026 0.0989 0.016 0.19792 0.01 0.29687-0.016 0.16667-0.3021 2.5-0.7344 3.375-0.2552 0.51563-0.5313 0.95313-1.0469 1.0365-3.3646 0.54166-10.849 1.2969-13.927 1.2969-19.208 0-23.568-12.161-23.568-21.156 0-11.396 6.2136-20.844 20.245-20.844 11.417 0 19.26 5.4115 19.26 16.406v1.2396c0 0.70312-0.6041 1.2813-1.3021 1.2813h-30.969c-0.849 0-1.5677 0.67708-1.5677 1.5312zm28.255-7.599c-0.9843-4.875-6.8698-7.5833-13.135-7.5833-6.4479 0-11.969 2.4323-13.615 7.3854-0.2031 0.60938-0.016 1.1979 0.224 1.4635 0.2396 0.26562 0.4792 0.56772 1.2292 0.60417h23.76c0.6146 5e-3 1.0416-0.31251 1.2239-0.52604 0.1875-0.21355 0.4792-0.71875 0.323-1.2812"/>
  <path d="m-1151.7 741.79c-0.011 0.64063 0.5156 1.1823 1.1615 1.1875l19.422-5e-3c6.9375 0 11.698-3.4583 11.698-10.729 0-4.9062-1.4167-7.875-4.6615-9.526-0.3802-0.19272-0.7865-0.5625-0.7865-1.0208 0-0.40104 0.3855-0.77082 0.6928-0.98437 2.1302-1.5052 4.0468-3.9323 4.0468-8.4427 0-3.026-2.3698-9.8333-12.906-9.8333l-17.5-5e-3c-0.6354 0.0107-1.1615 0.51041-1.1667 1.1615zm6.2813-34.63h10.495c4.6406 0 8.6354 1.1979 8.6354 6.0104 0 4.8073-5.4896 6.6823-8.9532 6.6823h-10.297c-0.1667 0-0.6407-0.21355-0.6407-0.69271v-11.245c0-0.30729 0.1875-0.7552 0.7605-0.7552zm0 17.651h8.5416c9.5834 0 12.109 3.2552 12.109 6.7031 0 4.8125-2.3958 7.0573-7.276 7.0573h-13.495c-0.1667 0-0.6407-0.21354-0.6407-0.6927v-12.307c0-0.30729 0.1875-0.76041 0.7605-0.76041"/>
  <path d="m-1051.6 764.48c0.068-0.17708 0.031-0.32812-0.068-0.48958l-6.4219-14.115c-0.052-0.0833-0.078-0.18751-0.078-0.29167 0-0.33333 0.2916-0.60937 0.625-0.60937l2.7447-5e-3c0.3073 0 0.5782 0.1823 0.698 0.44792l4.2812 10.161c0.1771 0.42188 0.5886 0.72917 1.0729 0.73437 0.4063 5e-3 0.75-0.19791 0.9636-0.51041l7.875-10.542c0.1406-0.17708 0.3437-0.29167 0.5885-0.29167l2.4479 5e-3c0.3334 0 0.6042 0.27604 0.6042 0.60937 0 0.14583-0.052 0.27604-0.1354 0.38021l-11.344 14.609c-0.094 0.11453-0.1406 0.22916-0.1301 0.375l-1.7031 11.068c-0.052 0.28126-0.3125 0.49479-0.6094 0.49479h-2.5729c-0.3334 0-0.6042-0.27604-0.6042-0.60416 0-0.0573 0.011-0.11453 0.026-0.16147l1.7396-11.266"/>
  <path d="m-1111.8 737.65-0.01-34.417c0.011-0.43749-0.349-0.79688-0.7865-0.80729h-4.5364c-0.4376-5e-3 -0.7969 0.31251-0.8073 0.75521l0.01 38.641c-0.01 0.64582 0.5052 1.1719 1.151 1.1771h16.052c0.4375 0.0107 0.8125-0.34896 0.8177-0.79167v-2.599c0.011-0.43749-0.3646-0.80208-0.802-0.80729l-9.9271 0.0107c-0.6459-5e-3 -1.1667-0.51561-1.1615-1.1614"/>
  <path d="m-1224.4 787.58h2.2552v-1.5938h-6.3281v1.5938h2.2083v11.797h1.8646v-11.797"/>
  <path d="m-1220.5 785.91v13.469h1.7813v-4.9531c0-1.8698 0.1562-4.1354 2.5989-4.1354 2.0677 0 2.2032 1.5104 2.2032 3.1979v5.8906h1.776v-6.1979c0-2.4479-0.6667-4.5365-3.5573-4.5365-1.2865 0-2.2448 0.55208-2.9792 1.5573l-0.042-0.0469v-4.2448h-1.7812"/>
  <path d="m-1208 794.53c0.021 1.9323 1.3958 3.4896 3.4219 3.4896 1.5104 0 2.4896-0.91145 3.1771-2.1562l1.5156 0.86979c-1.0052 1.8646-2.6927 2.9323-4.8281 2.9323-3.1094 0-5.1146-2.3802-5.1146-5.3802 0-3.0885 1.8021-5.6458 5.0729-5.6458 3.3542 0 5.1354 2.776 4.9531 5.8906zm6.3334-1.5104c-0.2448-1.5104-1.5105-2.7344-3.0678-2.7344-1.5364 0-2.9583 1.224-3.1822 2.7344h6.25"/>
  <path d="m-1180.6 786.44c-1.4896-0.93228-3.1355-1.3854-5.0052-1.3854-4.8021 0-7.4948 3.3177-7.4948 7.3646 0 4.0104 2.7604 7.25 7.4948 7.25 1.7812 0 3.5573-0.50521 5.0052-1.3854v-1.9479c-1.3386 1.125-3.1823 1.8125-5.0729 1.8125-3.7553 0-5.5573-2.6771-5.5573-5.7864s1.7812-5.7864 5.5156-5.7864c1.9323 0 3.776 0.65624 5.1146 1.8125v-1.9479"/>
  <path d="m-1178.5 794.18c0-3.0729 2.4219-5.5365 5.4896-5.5365s5.4896 2.4635 5.4896 5.5365c0 3.0677-2.4427 5.4896-5.4896 5.4896s-5.4896-2.4219-5.4896-5.4896zm1.776-0.026c0 2.1354 1.5105 3.8698 3.7136 3.8698s3.7135-1.7344 3.7135-3.8698c0-2.1094-1.5104-3.8646-3.7135-3.8646s-3.7136 1.7552-3.7136 3.8646"/>
  <path d="m-1163.6 788.93h-1.7813v10.448h1.7813v-5.401c0-1.5781 0.2239-3.6875 2.3125-3.6875 1.7135 0 1.8698 1.8646 1.8698 3.1562v5.9323h1.776v-5.5313c0-1.5833 0.224-3.5573 2.2656-3.5573 1.8229 0 1.9115 1.6667 1.9115 3.0208v6.0677h1.7812v-6.3542c0-2.2031-0.6666-4.3802-3.3333-4.3802-1.2708 0-2.5156 0.57812-3.1354 1.7344-0.5573-1.0886-1.6667-1.7344-2.8906-1.7344-1.0677 0-1.9584 0.55208-2.5157 1.4219h-0.042v-1.1354"/>
  <path d="m-1143 790.29c2.2031 0 3.5156 1.6875 3.5156 3.776 0 2.1146-1.2031 3.9583-3.4896 3.9583-2.224 0-3.4271-1.9323-3.4271-3.9792 0-1.9583 1.3333-3.7552 3.4011-3.7552zm-3.3125-1.3594h-1.7761v12.979h1.7761v-3.9948h0.047c0.8437 1.1302 2.1562 1.7552 3.5781 1.7552 3.1354 0 5.0261-2.5104 5.0261-5.4896 0-2.8906-1.9375-5.5365-5.0052-5.5365-1.4428 0-2.7344 0.61979-3.599 1.776h-0.047v-1.4896"/>
  <path d="m-1135.2 785.94h1.7812v13.438h-1.7812z"/>
  <path d="m-1129.4 794.53c0.021 1.9323 1.4011 3.4896 3.4271 3.4896 1.5104 0 2.4844-0.91145 3.1771-2.1562l1.5104 0.86979c-1 1.8646-2.6875 2.9323-4.8229 2.9323-3.1146 0-5.1146-2.3802-5.1146-5.3802 0-3.0885 1.8021-5.6458 5.0677-5.6458 3.3594 0 5.1354 2.776 4.9583 5.8906zm6.3385-1.5104c-0.2447-1.5104-1.5156-2.7344-3.0677-2.7344-1.5364 0-2.9583 1.224-3.1823 2.7344h6.25"/>
  <path d="m-1117.1 790.57h1.8698v-1.6458h-1.8698v-3.0208h-1.7761v3.0208h-1.0885v1.6458h1.0885v8.8021h1.7761v-8.8021"/>
  <path d="m-1112.8 794.53c0.021 1.9323 1.401 3.4896 3.4218 3.4896 1.5157 0 2.4896-0.91145 3.1823-2.1562l1.5105 0.86979c-1 1.8646-2.6928 2.9323-4.823 2.9323-3.1145 0-5.1145-2.3802-5.1145-5.3802 0-3.0885 1.802-5.6458 5.0677-5.6458 3.3593 0 5.1354 2.776 4.9583 5.8906zm6.3385-1.5104c-0.25-1.5104-1.5156-2.7344-3.0729-2.7344-1.5312 0-2.9531 1.224-3.1771 2.7344h6.25"/>
  <path d="m-1089.2 799.38h2.0937v-13.469h-1.5104v11.448h-0.042l-6.7552-11.448h-2.0469v13.469h1.5521l0.01-11.526 6.7031 11.526"/>
  <path d="m-1083.5 794.53c0.026 1.9323 1.401 3.4896 3.427 3.4896 1.5104 0 2.4896-0.91145 3.1771-2.1562l1.5104 0.86979c-1 1.8646-2.6875 2.9323-4.8229 2.9323-3.1146 0-5.1146-2.3802-5.1146-5.3802 0-3.0885 1.8021-5.6458 5.073-5.6458 3.3541 0 5.1354 2.776 4.9583 5.8906zm6.3385-1.5104c-0.2448-1.5104-1.5104-2.7344-3.0677-2.7344-1.5313 0-2.9584 1.224-3.1771 2.7344h6.2448"/>
  <path d="m-1071.5 790.57h1.8645v-1.6458h-1.8645v-3.0208h-1.7813v3.0208h-1.0885v1.6458h1.0885v8.8021h1.7813v-8.8021"/>
  <path d="m-1067.6 788.93h-1.7031l4.0312 10.417 0.5104 0.0312 2.5-7.0469 2.5365 7.0469 0.4583 0.0208 4.0886-10.469h-1.7084l-2.6198 7.0729-2.4635-7.0417-0.5833 0.0208-2.4428 7.0208-2.6041-7.0729"/>
  <path d="m-1055.2 794.18c0-3.0729 2.4219-5.5365 5.4896-5.5365s5.4948 2.4635 5.4948 5.5365c0 3.0677-2.4479 5.4896-5.4948 5.4896s-5.4896-2.4219-5.4896-5.4896zm1.776-0.026c0 2.1354 1.5157 3.8698 3.7136 3.8698 2.2031 0 3.7135-1.7344 3.7135-3.8698 0-2.1094-1.5104-3.8646-3.7135-3.8646-2.1979 0-3.7136 1.7552-3.7136 3.8646"/>
  <path d="m-1041.3 788.93h-1.7812v10.448h1.7812v-5.224c0-1.3542 0.4271-3.8646 2.3802-3.8646l-0.026-1.6458c-1.1562 0-1.6875 0.59896-2.3125 1.4219h-0.042v-1.1354"/>
  <path d="m-1035.8 785.91h-1.7812v13.469h1.7812v-4.2865l0.4636-0.46876 4.2031 4.7552h2.3593l-5.3177-6 4.4688-4.4479h-2.375l-3.8021 3.8698v-6.8906"/>
  <path d="m-1028.5 788.93h1.7761v10.448h-1.7761z"/>
  <path d="m-1008.8 790.29c2.1979 0 3.5104 1.6875 3.5104 3.776 0 2.1146-1.1979 3.9583-3.4896 3.9583-2.224 0-3.4219-1.9323-3.4219-3.9792 0-1.9583 1.3334-3.7552 3.4011-3.7552zm5.2031-1.3594h-1.7813v1.4896h-0.047c-0.8437-1.1302-2.1094-1.776-3.5573-1.776-3.0885 0-5.0416 2.6198-5.0416 5.5573 0 2.9114 1.9322 5.4687 4.9791 5.4687 1.4011 0 2.7761-0.64584 3.6198-1.7344h0.047v1.5156c0 1.3802-1.7291 2.7812-3.3541 2.7812-1.974 0-3.3386-0.67708-3.3386-1.7708h-1.776c0 1.8542 2.2239 3.125 5.1354 3.125 1.5573 0 2.6094-0.44792 3.8958-1.6094 0.8438-0.76042 1.2188-1.7396 1.2188-3.4063v-9.6406"/>
  <path d="m-989.26 788.35c-0.30729-2.5313-2.401-2.7448-3.9114-2.7448-2.0208 0-3.8021 1.3542-3.8021 3.4583 0 1.9479 1.0781 2.776 2.6614 3.4948l1.1042 0.60937c1.1302 0.52083 2.25 1.3281 2.25 2.4323 0 1.3802-1.1979 2.3802-2.5104 2.3802-1.151 0-2.1875-0.53646-2.276-1.8021l-1.9323-0.0364c0.4323 2.1094 2.0521 3.5104 4.2344 3.5104 2.3594 0 4.2656-1.8177 4.2656-4.1927 0-2.1614-1.6927-3.1302-3.2812-3.8281l-0.875-0.38542c-0.92188-0.41667-1.8958-1.0938-1.8958-2.1458 0-1.1198 1.1823-2.0156 2.2656-2.0156 0.63021 0 1.6875 0 1.8542 1.2656h1.849"/>
  <path d="m-988.07 794.18c0-3.0729 2.4219-5.5365 5.4896-5.5365 3.0677 0 5.4948 2.4635 5.4948 5.5365 0 3.0677-2.4479 5.4896-5.4948 5.4896-3.0417 0-5.4896-2.4219-5.4896-5.4896zm1.7812-0.026c0 2.1354 1.5104 3.8698 3.7083 3.8698 2.2031 0 3.7135-1.7344 3.7135-3.8698 0-2.1094-1.5104-3.8646-3.7135-3.8646-2.1979 0-3.7083 1.7552-3.7083 3.8646"/>
  <path d="m-951.62 794.18c0-3.0729 2.4219-5.5365 5.4896-5.5365s5.4948 2.4635 5.4948 5.5365c0 3.0677-2.4479 5.4896-5.4948 5.4896-3.0469 0-5.4896-2.4219-5.4896-5.4896zm1.776-0.026c0 2.1354 1.5156 3.8698 3.7135 3.8698 2.2031 0 3.7136-1.7344 3.7136-3.8698 0-2.1094-1.5104-3.8646-3.7136-3.8646-2.1979 0-3.7135 1.7552-3.7135 3.8646"/>
  <path d="m-936.81 788.93h-1.776v10.448h1.776v-4.9531c0-1.8698 0.15625-4.1354 2.6042-4.1354 2.0677 0 2.1979 1.5104 2.1979 3.1979v5.8906h1.7812v-6.1979c0-2.4479-0.66666-4.5365-3.5573-4.5365-1.2917 0-2.2448 0.55208-2.9792 1.5573h-0.0469v-1.2708"/>
  <path d="m-924.6 787.54h-4.125v0.88022h1.6406v4.2292h0.88021v-4.2292h1.6042v-0.88022"/>
  <path d="m-1055 742.55h4.625c0.4167 0 0.7709-0.33334 0.7709-0.75l-0.01-34.292c0-0.41666 0.3282-0.7448 0.7448-0.7448h9.0261c0.4166 0 0.7552-0.34896 0.7552-0.76562v-3.1302c0-0.41667-0.3386-0.75522-0.7552-0.75522h-25.109c-0.4167 0-0.7552 0.33855-0.7552 0.75522v3.1302c0 0.41666 0.3385 0.76562 0.7552 0.76562h8.4531c0.4167 0 0.7552 0.32814 0.7552 0.7448l-0.01 34.292c0 0.41666 0.3281 0.75 0.7448 0.75"/>
  <path d="m-1009.8 742.55h4.2813c0.4115 0 0.7656-0.33334 0.7656-0.75 0-0.20834-0.094-0.40106-0.2291-0.53647l-14.167-16.385c-0.1354-0.13542-0.2344-0.31251-0.2344-0.52084 0-0.41667 0.3385-0.75 0.7552-0.75l2.6927 0.0208c4.3959 0.0107 9.8646-1.2656 9.8646-10.094 0-7.5156-5.7187-11.417-13.12-11.417l-16.479-5e-3c-0.4166 0-0.75 0.33855-0.75 0.75522v38.932c0 0.41666 0.3334 0.7552 0.75 0.7552h4.349c0.4167 0 0.75-0.33854 0.75-0.7552l-0.011-33.932c0-0.41667 0.3386-0.73438 0.7553-0.73438l9.9635 5e-3c2.8229 0 8.276 0.66666 8.276 7.026 0 5.0938-5.401 6.2188-11.255 6.2188-1.4791 0-4.4479 0.026-5.7343 0.026-0.4167 0-0.7553 0.33334-0.7553 0.75 0 0.21354 0.094 0.41146 0.2344 0.54687l18.135 20.302c0.2813 0.32812 0.6979 0.54167 1.1615 0.54167"/>
  <path d="m-951.19 706.41c3.2604-3.7135 8.375-4.7656 13.599-4.7656 7.8281 0 14.75 2.9062 14.75 13.255v26.88c0 0.41667-0.34896 0.76563-0.76563 0.76563h-4.2135c-0.41667 0-0.73959-0.33855-0.73959-0.75522l-5e-3 -25.193c0-6.7136-4.8125-9.5417-10.682-9.5417-8.0521 0-13.401 4.9323-13.401 17.542l-5e-3 17.198c0 0.41666-0.34896 0.75-0.76563 0.75h-4c-0.41666 0-0.73958-0.34896-0.73958-0.76563v-38.49c0-0.41667 0.33333-0.75522 0.75-0.75522h3.776c0.41666 0 0.77084 0.33855 0.77084 0.75522l-0.0107 2.4792c0 0.53125 0.42187 0.96354 0.95312 0.96876 0.29167 0 0.55208-0.12494 0.72916-0.32814"/>
  <path d="m-1040 776.36 0.01-1.5208c0-0.33333 0.2709-0.60417 0.6042-0.60417 1.4323-0.0107 5.0573-0.0364 6.9167-0.0364 2.5573 0 5.6666-0.90625 6.0989-3.7136 0.8542-5.5312-10.88-8.4219-9.7656-15.687 0.6875-4.4531 5.0104-6 9.2656-6l4.4063 0.0156c0.3333 0 0.6146 0.27605 0.6146 0.60939l-0.037 1.5469c0 0.33334-0.2604 0.60938-0.5937 0.60938l-4.2813-0.0156c-4.0468 0-5.3593 1.8333-5.6145 3.4844-0.823 5.3646 10.896 8.3385 9.8177 15.354-0.7448 4.8333-5.4688 6.5625-9.8021 6.5625h-7.0417c-0.3333 0-0.5937-0.27605-0.5937-0.60417"/>
  <path d="m-1000.4 751.29 0.2396-1.5677c0.011-0.0416 0.016-0.0885 0.016-0.13541 0-0.33333-0.2657-0.60417-0.599-0.60417h-17.656c-0.2864 0-0.526 0.20313-0.5833 0.47396l-0.2135 1.651c-0.01 0.026-0.016 0.21354-0.016 0.23958 0 0.33334 0.2395 0.39584 0.5729 0.39584l6.1094 0.0107c0.3333 0 0.6302 0.27604 0.6302 0.60937l-3.5782 23.385c-0.011 0.0521-0.01 0.10413-0.01 0.16146 0 0.32812 0.2448 0.60416 0.5781 0.60416h2.573c0.3333 0 0.6145-0.27082 0.6145-0.60416l3.6511-23.672c0.047-0.28125 0.2916-0.48437 0.5885-0.48437l6.4792-0.0107c0.2812 0 0.526-0.1927 0.5989-0.45313"/>
  <path d="m-1000.7 762.99c-0.8333 5.3177 0.84374 10.38 6.5521 10.38 3.0625 0 5.9948-0.27604 8.2187-0.80208 0.32812-0.0781 0.72918 0.0833 0.77084 0.41666 0.0416 0.32812-0.39584 2.526-0.5 2.7865-0.0729 0.1875-0.19272 0.39062-0.41146 0.43229-2.5677 0.54688-4.651 0.91145-7.0417 0.91145-10.776 0-12.203-8.6771-11.37-14.312 1.1511-7.7917 6.0886-14.26 14.635-14.26 6.9531 0 9.8906 3.7031 8.7812 11.219l-0.17188 1.1094c-0.13013 0.70312-0.74479 1.2292-1.4844 1.2292l-16.974 0.0156c-0.5156 0-0.9323 0.38021-1.0052 0.875zm17.062-5.1979c0-3.7188-1.8125-6.375-6.8177-6.375-3.2656 0-7.474 2.2604-9.099 5.8906-0.0677 0.14584-0.0885 0.31251-0.0885 0.48439 0 0.68749 0.54167 1.2448 1.2292 1.2448h13.536c0.68229 0 1.2396-0.5625 1.2396-1.2448"/>
  <path d="m-947.26 776.51h2.1198c0.27604 0 0.51562-0.20312 0.58854-0.45833l3.0938-20.042c0.78645-5.1406-3.3333-7.4635-7.9062-7.4635-2.4115 0-5.4531 0.95833-7.474 3.1458-0.4375 0.47396-1.2865 0.66146-1.8438-0.16145-0.97916-1.4636-4.2136-2.9844-6.2136-2.9844-2.7239 0-5.2604 1.0573-7.1979 2.7656-0.1823 0.16667-0.41147 0.26563-0.6771 0.25-0.53124-0.0312-0.93749-0.48957-0.90104-1.0208l0.0781-0.65104c5e-3 -0.0364 0.0156-0.0833 0.0156-0.11973 0-0.33333-0.27084-0.60937-0.60418-0.60937h-2.2135c-0.26562 0-0.48958 0.18229-0.57291 0.42188l-4.0365 26.187c-5e-3 0.0364-0.0208 0.0989-0.0208 0.13543 0 0.32812 0.26042 0.60416 0.59375 0.60416h2.2136c0.27604 0 0.51562-0.20834 0.58333-0.45834l2.2604-14.74c0.8073-5.25 4.6615-8.7917 8.9688-8.7917 3.5729 0 4.9844 2.526 4.5104 5.6198l-2.7344 17.656c-5e-3 0.0312-0.0208 0.0729-0.0208 0.10934 0 0.32812 0.27083 0.60416 0.60416 0.60416h2.8125c0.27604 0 0.53645-0.20312 0.60937-0.45834l2.2812-14.74c0.8073-5.25 4.6562-9.0625 8.9688-9.0625 3.5729 0 4.8542 2.1042 4.3802 5.1979l-2.8333 18.349c-0.0107 0.0364-0.026 0.0729-0.026 0.10934 0 0.32812 0.26043 0.60416 0.59376 0.60416"/>
  <path d="m-1228.3 807.82h310.02v2.75h-310.02z"/>
  <path d="m-961.08 722.36c0 14.302-9.3177 20.849-22.109 20.849-12.792 0-22.115-6.5469-22.115-20.849 0-12.552 8.0469-20.911 22.115-20.911 14.068 0 22.109 8.3594 22.109 20.911zm-38.365 0c0 8.6042 3.8437 16.792 16.255 16.792s16.255-8.1875 16.255-16.792c0-10.37-5.7552-16.854-16.255-16.854s-16.255 6.4844-16.255 16.854"/>
  <path d="m-1060.5 750.84 0.047-1.2812c0-0.41667-0.3438-0.75521-0.7656-0.75521l-4.9011-5e-3c-4.25 0-8.5781 1.5469-9.2656 6-1.1146 7.2656 10.62 10.156 9.7656 15.688-0.4323 2.8073-3.5416 3.7135-6.0989 3.7135l-156.58 5e-3v2.7448l156.69 0.0156c4.3334 0 9.0573-1.7292 9.8021-6.5625 1.0782-7.0156-10.641-9.9896-9.8177-15.354 0.2552-1.651 1.5677-3.4844 5.6146-3.4844l4.7396 0.026c0.4167 0 0.7708-0.33333 0.7708-0.75"/>
  <path d="m-1028.5 785.9h1.7761v1.7761h-1.7761z"/>
  <path d="m-955.04 788.93h1.7812v10.448h-1.7812z"/>
  <path d="m-955.04 785.9h1.776v1.7761h-1.776z"/>
  <path d="m-958.36 790.57h1.8698v-1.6458h-1.8698v-3.0208h-1.776v3.0208h-1.0886v1.6458h1.0886v8.8021h1.776v-8.8021"/>
  <path d="m-975.18 785.94h1.7812v13.438h-1.7812z"/>
  <path d="m-1022.8 788.93h-1.7761v10.448h1.7761v-4.9531c0-1.8698 0.1562-4.1354 2.5989-4.1354 2.0677 0 2.2032 1.5104 2.2032 3.1979v5.8906h1.776v-6.1979c0-2.4479-0.6667-4.5365-3.5573-4.5365-1.2865 0-2.2448 0.55208-2.9739 1.5573h-0.047v-1.2708"/>
  <path d="m-1190 739.22c0.01-0.0989 0.016-0.19792-0.01-0.29686-0.089-0.4323-0.4531-0.63022-0.8802-0.54688-2.9323 0.58854-6.6927 1.2187-10.771 1.2187-11.635 0-16.729-7.9062-16.729-17.104 0-8.7188 6.0781-15.516 15.677-15.516 3.8646 0 7.3229 0.5 10.708 1.4479 0.1145 0.0312 0.2604 0.0468 0.3854 0.0208 0.4323-0.0885 0.7188-0.51041 0.6354-0.93749l-0.4375-3.4011c0-0.5677-0.427-1.0156-0.9583-1.1354-3.6823-0.85937-7.3854-1.0052-10.245-1.0052-15.505 0-21.755 10.417-21.755 20.521 0 8.9896 3.8281 21.802 23.036 21.802 3.0781 0 6.1927-0.11453 9.552-0.65624 0.5157-0.0885 0.7969-0.52084 1.0469-1.0365 0.4323-0.8802 0.724-3.2083 0.7396-3.375"/>
  <path d="m-1160.2 742.97h3.8645c0.4427 5e-3 0.8073-0.34896 0.8177-0.79167v-29.818c0-5.901-3.8854-10.786-14.495-10.786-4.7865 0-9.6823 0.85937-14.208 2.026-0.3177 0.0833-0.5416 0.31772-0.625 0.6198-0.2083 0.74479-0.5521 3.0156-0.5781 3.2292-0.042 0.27084-0.073 0.55729 0.052 0.82813 0.2657 0.58854 0.9844 0.94791 1.5886 0.72396 4.276-1.5833 9.5-2.2188 12.547-2.2188 3.4687 0 8.4322 1.3281 8.4322 5.4063 0 9.0417-26.052 7.2812-26.052 20.271 0 8.0833 5.5885 11.583 13.49 11.583 3.0781 0 4.8333 0.12493 8.1927-0.41667 0.5208-0.0885 0.7968-0.52084 1.0468-1.0365 0.4323-0.8802 0.724-3.2083 0.7396-3.375 0.01-0.0989 0.016-0.19792-0.01-0.29686-0.089-0.4323-0.4531-0.63022-0.8854-0.54688-2.9271 0.58854-3.4063 0.86458-7.4844 0.86458-3.875 0-8.3125-2.1094-8.3125-6.1302 0-6.2188 13.516-8.25 19.432-11.745 0.5573-0.32813 1.2916 0 1.5573 0.58854 0.062 0.14062 0.099 0.28646 0.1041 0.42709v19.776c-0.011 0.43749 0.3438 0.80729 0.7813 0.81771"/>
  <path d="m-941.85 776.36v-1.5208c0-0.33333 0.27605-0.60417 0.60939-0.60417 1.4323-0.0107 5.0521-0.0364 6.9114-0.0364 2.5625 0 5.6719-0.90625 6.1042-3.7136 0.84896-5.5312-10.88-8.4219-9.7656-15.687 0.68749-4.4531 5.0104-6 9.2604-6l4.4062 0.0156c0.33334 0 0.61979 0.27605 0.61979 0.60939l-0.0416 1.5469c0 0.33334-0.25521 0.60938-0.58855 0.60938l-4.2812-0.0156c-4.0469 0-5.3594 1.8333-5.6146 3.4844-0.82814 5.3646 10.896 8.3385 9.8177 15.354-0.74478 4.8333-5.4687 6.5625-9.8021 6.5625h-7.0417c-0.33334 0-0.59376-0.27605-0.59376-0.60417"/>
  <path d="m-964.44 799.12c-0.59895 0.35938-1.375 0.54688-2.3594 0.54688-3.0937 0-4.1354-1.9323-4.1354-4.7135v-6.026h1.776v5.8281c0 1.7552 0.19792 3.2656 2.3594 3.2656 2.1563 0 2.3542-1.5104 2.3542-3.2656v-5.8281h1.7812v10.432h-1.7812l5e-3 -0.23959"/>
  <path d="m-922.73 792.65v-3.7344l1.4636 3.7344h0.73437l1.4792-3.7865v3.7865l0.875-5e-3v-5.1094h-1.2135l-1.5156 3.6771-1.4688-3.6771h-1.224v5.1094l0.86979 5e-3"/>
 </g>
</svg>
